PathFileType	4	(X/Y/Z)	C:\Users\dbl\Desktop\LZH\BX\bx_y_0_901.trc
DataRate	CameraRate	NumFrames	NumMarkers	Units	OrigDataRate	OrigDataStartFrame	OrigNumFrames
50.00	50.00	      4	43	mm	50.00	1	      1220
Frame#	Time	Top.Head			R.Acromium			L.Acromium			Sternum			R.ASIS			L.ASIS			V.Sacral			R.Thigh.Upper			R.Thigh.Front			R.Thigh.Rear			R.Knee.Lat			R.Knee.Med			R.Shank.Upper			R.Shank.Front			R.Shank.Rear			R.Ankle.Lat			R.Midfoot.Lat			R.Toe.Lat			R.Toe.Tip			R.Toe.Med			R.Ankle.Med			R.Midfoot.Sup			R.Heel			L.Thigh.Upper			L.Thigh.Front			L.Thigh.Rear			L.Knee.Lat			L.Knee.Med			L.Shank.Upper			L.Shank.Front			L.Shank.Rear			L.Ankle.Lat			L.Midfoot.Lat			L.Toe.Lat			L.Toe.Tip			L.Toe.Med			L.Ankle.Med			L.Midfoot.Sup			L.Heel			origin1 front left			origin2 front right			origin 3 back right			origin 4 back leftt			
		X1	Y1	Z1	X2	Y2	Z2	X3	Y3	Z3	X4	Y4	Z4	X5	Y5	Z5	X6	Y6	Z6	X7	Y7	Z7	X8	Y8	Z8	X9	Y9	Z9	X10	Y10	Z10	X11	Y11	Z11	X12	Y12	Z12	X13	Y13	Z13	X14	Y14	Z14	X15	Y15	Z15	X16	Y16	Z16	X17	Y17	Z17	X18	Y18	Z18	X19	Y19	Z19	X20	Y20	Z20	X21	Y21	Z21	X22	Y22	Z22	X23	Y23	Z23	X24	Y24	Z24	X25	Y25	Z25	X26	Y26	Z26	X27	Y27	Z27	X28	Y28	Z28	X29	Y29	Z29	X30	Y30	Z30	X31	Y31	Z31	X32	Y32	Z32	X33	Y33	Z33	X34	Y34	Z34	X35	Y35	Z35	X36	Y36	Z36	X37	Y37	Z37	X38	Y38	Z38	X39	Y39	Z39	X40	Y40	Z40	X41	Y41	Z41	X42	Y42	Z42	X43	Y43	Z43	

1	0.000	-671.41199	269.65829	1841.18604	-637.74823	65.72517	1532.82996	-641.74799	464.07184	1512.25867	-543.14758	272.48566	1401.05750	-533.62518	157.22568	1056.91467	-532.01044	393.39282	1060.01587	-730.21448	254.80011	1049.08240	-567.83557	102.74953	892.58978	-524.21820	158.07140	838.63092	-613.75714	96.40334	747.25787	-650.13318	128.02348	596.60211	-626.35333	233.92274	556.61261	-680.58557	127.48517	541.05780	-596.59180	172.60550	540.26093	-718.88495	129.75035	474.31754	-685.88373	146.74677	215.18396	-615.49622	79.77231	168.46774	-570.70898	53.03552	163.24266	-492.14340	92.53732	160.98326	-530.76971	145.77304	163.27209	-631.62036	221.39494	217.69319	-591.25970	191.24385	167.34035	-716.57709	215.00620	169.95332	-567.60278	441.95898	882.08600	-527.70410	372.52750	825.43372	-611.04803	440.17969	748.79401	-655.63763	418.22549	625.08636	-612.55078	317.33502	573.35968	-663.97040	415.84583	562.90900	-607.90112	375.24081	536.00543	-712.97632	417.55234	509.04581	-679.67798	414.08871	213.49541	-585.49847	468.28955	164.74901	-546.86035	479.51089	159.70354	-488.22510	428.00763	167.67293	-524.64801	387.30948	177.68797	-641.34259	324.67639	207.99278	-593.00757	346.55734	169.79004	-732.42462	342.62909	164.64272	-443.84387	448.94321	147.09203	-450.31644	75.62925	143.99661	-806.22833	82.55876	142.66856	-799.08856	458.33105	144.38403	
2	0.020	-671.01093	269.66449	1841.23560	-637.39117	65.89073	1532.71777	-641.48572	464.04266	1512.24866	-542.78662	272.60153	1401.18164	-533.52441	157.22145	1056.91919	-531.96277	393.42914	1060.01270	-730.11017	254.81517	1049.00476	-567.64935	102.63771	892.62628	-524.08093	158.16644	838.74200	-613.57526	96.36328	747.30499	-650.15735	128.05939	596.66229	-626.39246	233.94809	556.59106	-680.46552	127.50117	541.07416	-596.68170	172.84792	540.41357	-718.86383	129.74356	474.38864	-685.91797	146.79617	215.18564	-615.57257	79.78359	168.53642	-570.73920	53.06191	163.24222	-492.12833	92.54675	160.96812	-530.74756	145.76569	163.24619	-631.54028	221.35339	217.74301	-591.29413	191.27332	167.30034	-716.60535	215.09239	169.98798	-567.50592	442.01447	882.13806	-527.57568	372.55115	825.40717	-610.96759	440.10077	748.75049	-655.59937	418.25562	625.20178	-612.55511	317.42584	573.27600	-664.04340	415.83261	562.95111	-607.75055	375.56006	536.37183	-712.96753	417.63156	509.03732	-679.69452	414.17404	213.48665	-585.46204	468.27289	164.73079	-546.85730	479.52481	159.70569	-487.99994	428.38086	168.12013	-524.64215	387.35944	177.71130	-641.33472	324.67899	207.92503	-593.03174	346.51364	169.77521	-732.35895	342.53830	164.56270	-443.81702	448.97379	147.20139	-450.30798	75.64165	143.97055	-806.23993	82.65986	142.61688	-799.14294	458.00760	144.62485	
3	0.040	-670.64764	269.72360	1841.27795	-637.01337	66.07983	1532.60303	-641.24841	464.08679	1512.27747	-542.43182	272.70416	1401.25378	-533.42474	157.24478	1056.93323	-531.89172	393.45386	1060.00659	-729.98993	254.83206	1048.96545	-567.47205	102.57410	892.64459	-523.97626	158.20699	838.81000	-613.45361	96.33048	747.34570	-650.16760	128.08067	596.69452	-626.41791	233.96375	556.57806	-680.36853	127.52946	541.09589	-596.67761	172.95412	540.51465	-718.85101	129.73827	474.44650	-685.95099	146.81972	215.18594	-615.62262	79.77255	168.57541	-570.75690	53.08300	163.22516	-492.12561	92.54868	160.96608	-530.74078	145.75259	163.22400	-631.46423	221.35361	217.77553	-591.30707	191.29247	167.27245	-716.61902	215.16304	170.02914	-567.38318	442.08224	882.20508	-526.56256	373.48785	826.51880	-610.87604	440.03937	748.69690	-655.55792	418.29926	625.29694	-612.56177	317.49750	573.18207	-664.08850	415.82544	562.97748	-607.63641	375.80533	536.57886	-712.94879	417.67615	509.02725	-679.69867	414.22897	213.48703	-585.43597	468.26187	164.70227	-546.84674	479.52557	159.71609	-487.85382	428.63730	168.39217	-524.64246	387.37418	177.75056	-641.32208	324.65988	207.88695	-593.08014	346.52219	169.73077	-732.32062	342.47922	164.51764	-443.79407	449.00403	147.26425	-450.30240	75.64491	143.95674	-806.26367	82.73264	142.58531	-799.16504	457.77585	144.83128	
4	0.060	-670.32690	269.84476	1841.30859	-636.63141	66.25491	1532.52783	-641.01764	464.23703	1512.34875	-542.10736	272.78513	1401.26025	-533.33350	157.29486	1056.95459	-531.78491	393.45615	1059.99426	-729.85669	254.84157	1048.99097	-567.30902	102.57095	892.63599	-523.91486	158.19971	838.82660	-613.40491	96.30870	747.37366	-650.15558	128.07672	596.70135	-626.42365	233.97261	556.56604	-680.30200	127.56998	541.11139	-596.60315	172.93655	540.56097	-718.84900	129.73654	474.48584	-685.96729	146.81561	215.17477	-615.64276	79.74187	168.58615	-570.76221	53.08917	163.20265	-492.13269	92.54424	160.97346	-530.76007	145.74126	163.19710	-631.42212	221.39532	217.75935	-591.29443	191.29265	167.26982	-716.60950	215.21890	170.06961	-567.27264	442.14923	882.24683	-524.24432	375.76236	829.28424	-610.77686	440.00037	748.64587	-655.50757	418.35364	625.35199	-612.58533	317.52881	573.08344	-664.09387	415.82660	562.97699	-607.55847	375.95447	536.60968	-712.91907	417.68378	509.01230	-679.69177	414.22693	213.48309	-585.42615	468.26862	164.66693	-546.83667	479.52493	159.72600	-487.80148	428.75494	168.46272	-524.66534	387.33099	177.83916	-641.30255	324.61084	207.89534	-593.14392	346.57425	169.66409	-732.32324	342.45633	164.51274	-443.77594	449.02386	147.27202	-450.30020	75.63946	143.95729	-806.29858	82.76834	142.57059	-799.16504	457.63403	144.99657	
